<svg width="512" height="512" viewBox="0 0 512 512" xmlns="http://www.w3.org/2000/svg">
  <defs>
    <linearGradient id="hlFireGrad" x1="24" y1="6" x2="24" y2="44" gradientUnits="userSpaceOnUse">
      <stop stop-color="#FF6B2C" />
      <stop offset="0.5" stop-color="#E83A14" />
      <stop offset="1" stop-color="#B91C0C" />
    </linearGradient>
    <linearGradient id="hlInnerFire" x1="24" y1="18" x2="24" y2="42" gradientUnits="userSpaceOnUse">
      <stop stop-color="#FFD600" />
      <stop offset="1" stop-color="#FF6B2C" />
    </linearGradient>
    <linearGradient id="hlWordGrad" x1="0" y1="0" x2="1" y2="1" gradientUnits="objectBoundingBox">
      <stop offset="0%" stop-color="#ff6a2e" />
      <stop offset="100%" stop-color="#3377ff" />
    </linearGradient>
  </defs>
  <rect width="512" height="512" fill="#08080A" />
  <g transform="translate(72,208)">
    <g transform="scale(2)">
      <path
        d="M14 42C14 42 8 32 12 22C14.5 16 18 14 20 10C20 10 20 18 24 22C22 18 19 12 22 6C22 6 30 14 32 22C34 14 36 12 36 10C36 10 42 18 40 28C38.5 36 34 42 34 42H14Z"
        fill="url(#hlFireGrad)"
      />
      <path
        d="M20 42C20 42 16 36 18 30C19.5 25 22 24 24 20C24 20 26 26 28 28C30 24 30 22 30 20C30 20 35 26 33 32C31.5 37 28 42 28 42H20Z"
        fill="url(#hlInnerFire)"
      />
      <ellipse cx="24" cy="38" rx="3" ry="4" fill="white" opacity="0.85" />
    </g>
    <text
      x="120"
      y="48"
      font-family="system-ui, -apple-system, BlinkMacSystemFont, 'Segoe UI', Roboto, 'Helvetica Neue', Arial, sans-serif"
      font-size="76"
      font-weight="800"
      letter-spacing="-0.03em"
      fill="url(#hlWordGrad)"
      dominant-baseline="middle"
    >Beefs</text>
  </g>
</svg>
